<?xml version="1.0" encoding="UTF-8"?>
<svg id="Layer_1" data-name="Layer 1" xmlns="http://www.w3.org/2000/svg" viewBox="0 0 135.64 135.64">
  <defs>
    <style>
      .cls-1 {
        stroke-miterlimit: 4;
      }

      .cls-1, .cls-2, .cls-3 {
        fill: none;
        stroke: #622;
      }

      .cls-3 {
        stroke-miterlimit: 10;
      }

      .cls-4 {
        opacity: .98;
      }
    </style>
  </defs>
  <circle class="cls-3" cx="67.82" cy="67.82" r="67.32"/>
  <path class="cls-1" d="M63.26,127.64c.27-.77,.94-2.37,1.5-3.55l1-2.15,1.3,.08c1.19,.07,1.33,.13,1.67,.72,.3,.51,1.97,4.82,2.36,6.07,.07,.23,.48,.26,2.11,.14,3.05-.22,2.83-.07,3.1-2.16,.13-.99,.43-2.66,.67-3.7l.45-1.9,.87-.14c.48-.08,1.07-.19,1.32-.25,.37-.09,.65,.16,1.59,1.41,.63,.84,1.57,2.25,2.11,3.14,1.1,1.83,.79,1.77,3.74,.78l1.66-.56-.08-3.76-.08-3.76,1.06-.54c.58-.3,1.24-.54,1.46-.54s1.48,1.06,2.96,2.5l2.56,2.5,1.04-.53c2.27-1.17,3.06-1.77,2.94-2.26-.06-.25-.44-1.75-.85-3.33-.41-1.58-.74-3.05-.74-3.26s.46-.72,1.07-1.17l1.07-.79,1.26,.7c.7,.38,2.12,1.25,3.17,1.93,1.29,.83,2,1.18,2.2,1.06,.16-.09,.98-.8,1.82-1.58l1.53-1.4-.78-1.4c-.76-1.35-2.06-4.03-2.43-4.98-.15-.38-.02-.64,.72-1.45l.9-1,1.42,.38c.78,.21,2.39,.76,3.57,1.22,1.22,.48,2.21,.76,2.28,.65,.07-.11,.67-.95,1.32-1.88,.66-.92,1.19-1.74,1.19-1.81s-.77-1.05-1.72-2.18c-.94-1.13-1.99-2.44-2.32-2.92l-.6-.87,.65-1.18,.65-1.18,1.41,.07c1.11,.05,4.99,.53,5.92,.73,.09,.02,.61-.98,1.13-2.22,.85-1.98,.92-2.28,.63-2.44-.68-.38-3.61-2.64-4.61-3.55l-1.02-.93,.34-1.21c.19-.67,.45-1.28,.59-1.36,.26-.16,3.06-.52,5.7-.73l1.68-.13,.34-1.91c.49-2.72,.48-2.79-.44-3.15-.43-.17-1.92-.88-3.32-1.58l-2.54-1.27v-.99c0-1.74,.15-1.91,2.42-2.72,1.12-.4,2.67-.9,3.44-1.1l1.4-.37v-2.2c0-1.21-.07-2.31-.16-2.43-.08-.13-1.1-.43-2.27-.68-1.16-.25-2.77-.65-3.57-.89-1.35-.41-1.47-.49-1.56-1.08-.05-.35-.15-.97-.21-1.38l-.11-.73,2.06-1.29c1.13-.71,2.58-1.54,3.22-1.86,.64-.31,1.16-.71,1.16-.87s-.25-1.22-.55-2.35l-.55-2.04h-2.41c-1.32,0-3.03-.06-3.79-.13l-1.38-.13-.43-1.04c-.24-.57-.43-1.2-.43-1.4,0-.36,2.19-2.57,4.29-4.34l1.08-.91-1.05-2.11c-.58-1.16-1.08-2.13-1.11-2.17-.03-.03-.79,.12-1.69,.35-1.79,.46-5.67,1.15-5.76,1.03-.52-.66-1.37-2.08-1.37-2.28,0-.35,1.04-1.98,2.75-4.32,1.41-1.93,1.42-1.95,1.04-2.39-.21-.25-.92-1.07-1.58-1.83l-1.19-1.39-2.24,1.08c-1.23,.6-2.76,1.26-3.4,1.48l-1.15,.39-1.05-.88-1.05-.88,.54-1.49c.29-.82,.9-2.34,1.35-3.37s.85-1.96,.9-2.08c.08-.2-2.13-2.07-3.25-2.75-.54-.32-.58-.31-1.56,.5-.55,.46-1.89,1.45-2.98,2.2l-1.98,1.37-1.2-.74-1.2-.74,.14-1.17c.14-1.18,.76-4.64,1.03-5.68,.14-.54,.06-.6-1.95-1.61-1.15-.58-2.16-1.05-2.25-1.04-.09,0-.56,.54-1.05,1.2-.49,.65-1.57,1.92-2.39,2.81l-1.5,1.62-1.34-.48-1.34-.48-.13-1.25c-.07-.69-.14-2.38-.16-3.78l-.02-2.53-1.92-.44c-1.06-.24-2.13-.48-2.38-.54-.4-.09-.56,.1-1.21,1.41-.41,.83-1.23,2.33-1.81,3.33-1.04,1.78-1.08,1.82-1.74,1.71-2.34-.36-2.07-.15-2.64-2.01-.28-.92-.72-2.56-.96-3.63l-.45-1.95h-2.41s-2.41,0-2.41,0l-.65,2.44c-.36,1.34-.85,2.97-1.09,3.61l-.44,1.17-1.29,.1c-.71,.05-1.4,.01-1.53-.09-.13-.1-.93-1.56-1.76-3.25s-1.55-3.09-1.57-3.14c-.05-.09-1.86,.22-3.8,.63l-.95,.2-.15,2.85c-.08,1.57-.21,3.26-.29,3.77q-.14,.92-1.46,1.35l-1.32,.42-1.14-1.24c-.63-.68-1.7-1.97-2.39-2.86s-1.33-1.61-1.43-1.61-1.11,.44-2.25,.97c-1.57,.73-2.05,1.05-1.98,1.3,.27,.92,.76,4.01,.87,5.5l.13,1.69-1.19,.65-1.19,.65-1.37-.96c-.76-.53-2.07-1.55-2.93-2.26-.86-.72-1.67-1.26-1.8-1.21-.37,.14-3.34,2.37-3.49,2.62-.07,.12,.28,1.26,.79,2.55,.51,1.28,1.08,2.83,1.28,3.44l.36,1.11-.9,.93c-.77,.79-1,.91-1.5,.81-.44-.09-4.87-2.15-6.38-2.97-.07-.04-.83,.75-1.69,1.75l-1.56,1.82,1.3,1.88c.71,1.03,1.64,2.47,2.06,3.2l.76,1.32-.77,1.07c-.42,.59-.79,1.1-.81,1.13-.07,.11-4.27-.79-5.85-1.25-.83-.24-1.54-.4-1.58-.35-.15,.17-2.2,3.99-2.2,4.09,0,.06,.98,1.04,2.18,2.17,1.2,1.14,2.37,2.34,2.61,2.68l.43,.61-.48,1.24-.48,1.24-3.83,.06-3.83,.06-.58,1.97c-.32,1.09-.58,2.11-.58,2.29,0,.17,.44,.55,.98,.83s1.95,1.16,3.13,1.93l2.15,1.41-.14,.98c-.28,1.94-.11,1.79-2.77,2.41-1.33,.31-2.97,.65-3.64,.75s-1.25,.22-1.28,.25-.12,1.13-.2,2.45l-.14,2.39,1.32,.37c.73,.2,2.32,.76,3.55,1.24l2.23,.87v1.08c0,.6,.05,1.21,.11,1.36,.14,.36-1.38,1.21-4.35,2.44-1.27,.53-2.34,1.05-2.38,1.16-.1,.29,.41,4.14,.57,4.41,.08,.12,1.16,.33,2.42,.46s2.89,.36,3.63,.49l1.35,.25,.38,1.21c.21,.66,.33,1.33,.27,1.48-.09,.23-3.9,3.21-5.47,4.27l-.46,.31,.82,2.16c.45,1.19,.85,2.19,.89,2.23,.04,.04,1.09-.07,2.33-.24,1.25-.17,2.94-.3,3.77-.31h1.5s.61,1.2,.61,1.2l.61,1.2-1.15,1.45c-.63,.8-1.75,2.07-2.49,2.83l-1.35,1.38,1.29,2c.71,1.1,1.36,2,1.45,2s1.41-.41,2.93-.92c4.2-1.4,4.09-1.39,5.13-.15l.87,1.04-1.04,2.09c-.57,1.15-1.37,2.6-1.77,3.22-.4,.63-.73,1.22-.73,1.31,0,.16,1.27,1.43,2.82,2.82l.64,.58,1.24-.83c.68-.46,2.14-1.31,3.23-1.89l1.99-1.07,1.04,.79c.57,.44,1.04,.93,1.05,1.1,.02,.5-.95,4.15-1.5,5.67l-.5,1.39,1.58,1.01c2.72,1.74,2.37,1.72,3.94,.19,.76-.74,2-1.86,2.76-2.5l1.39-1.16,1.28,.56,1.28,.56-.15,3.01c-.09,1.66-.17,3.38-.18,3.83l-.03,.82,2.2,.77,2.2,.77,1.48-2.24c.81-1.23,1.83-2.63,2.26-3.1l.78-.86,1.28,.33,1.28,.33,.43,2.32c.24,1.27,.49,2.95,.57,3.72,.07,.77,.19,1.41,.26,1.41,.07,0,1.01,.14,2.1,.29,1.08,.15,2.11,.29,2.28,.3,.21,.01,.48-.45,.81-1.38Z"/>
  <circle class="cls-3" cx="67.82" cy="105.09" r="1.8"/>
  <g class="cls-4">
    <path class="cls-2" d="M42.59,82.68H26.35v-1.29c1.52-.03,2.64-.15,3.38-.36s1.24-.59,1.51-1.14,.41-1.41,.41-2.58v-21.89c0-1.25-.12-2.18-.35-2.79s-.71-1.04-1.44-1.29-1.89-.4-3.5-.45v-1.29h18.49c2.33,0,4.36,.4,6.11,1.21s3.05,1.88,3.94,3.21,1.32,2.78,1.32,4.32c0,1.02-.2,2-.61,2.96s-.99,1.83-1.76,2.61-1.69,1.45-2.78,2-2.35,.95-3.79,1.18c1.08,1.08,2.41,2.6,3.98,4.57l2.32,2.74,.47,.53c.19,.21,.43,.48,.73,.81,.75,.91,1.38,1.65,1.9,2.24s1.03,1.11,1.54,1.58,1,.85,1.49,1.14,1,.51,1.55,.67v1.29h-4.41c-1,0-1.95-.22-2.84-.67s-1.75-1.07-2.57-1.89-1.75-1.88-2.8-3.21l-3.28-4.17c-1.52-1.97-2.64-3.33-3.39-4.09s-1.39-1.14-1.93-1.14h-2.6v9.94c0,.98,.12,1.76,.38,2.32s.8,.97,1.64,1.22c.45,.12,1.01,.23,1.66,.3s1.15,.11,1.48,.09v1.29Zm-10.2-27.45v23.13c0,1.47-.54,2.48-1.62,3.02,2.05-.05,3.07-.84,3.07-2.37v-23.65c0-1.2-.07-2.11-.2-2.73s-.44-1.07-.91-1.37-1.21-.42-2.19-.38c.81,.36,1.32,.83,1.54,1.42s.32,1.56,.32,2.92Zm5.04,.42v10.57h3.8c1.28,0,2.55-.21,3.8-.62s2.2-.93,2.84-1.56c1.28-1.2,1.92-3.04,1.92-5.51,0-2.92-.99-5.07-2.98-6.45-.7-.48-1.44-.8-2.2-.96s-1.74-.23-2.93-.23-2.11,.16-2.73,.48-1.02,.8-1.22,1.45-.29,1.59-.29,2.82Zm6.12,11.86h-1.92c.56,.42,1.21,1.05,1.96,1.9s1.68,1.98,2.8,3.42,2.26,2.9,3.4,4.38c1.05,1.33,2.02,2.35,2.91,3.06s1.68,1.17,2.37,1.37,1.42,.32,2.2,.35c-.97-.47-1.9-1.11-2.79-1.93s-1.85-1.86-2.87-3.12-2.08-2.58-3.16-3.97-2.21-2.7-3.36-3.94c-.16-.22-.35-.46-.57-.74s-.54-.54-.95-.79Zm2.06-1.41c2.09-.27,3.7-1.05,4.83-2.34s1.69-3.05,1.69-5.27-.5-3.87-1.5-5.14-2.42-2.04-4.27-2.31c1.41,.72,2.46,1.68,3.15,2.89s1.04,2.82,1.04,4.84c0,2.12-.41,3.72-1.23,4.78s-2.06,1.91-3.71,2.55Z"/>
    <path class="cls-2" d="M88.51,74.67l10.24-25.05h10.12v1.29c-1.58,.02-2.69,.22-3.33,.61s-1.02,.95-1.12,1.69-.16,2.09-.16,4.05v20.25c0,1.03,.14,1.81,.41,2.34s.71,.9,1.32,1.11,1.57,.36,2.88,.43v1.29h-15.12v-1.29c1.5-.02,2.59-.2,3.26-.56s1.07-.84,1.2-1.44,.19-1.6,.19-2.99v-22.62l-11.65,28.9h-1.36l-11.51-27.98v19.2c0,2.16,.41,3.84,1.23,5.05s2.18,2.03,4.09,2.45v1.29h-11.86v-1.29c1.67-.17,2.96-.82,3.87-1.96s1.36-2.72,1.36-4.77v-21.75c-.64-.7-1.41-1.23-2.3-1.57s-1.87-.49-2.93-.45v-1.29h10.71l10.45,25.05Zm-18.47,6.73h4.95c-.56-.3-1.02-.71-1.37-1.23s-.61-1.14-.79-1.84c-.22,.64-.56,1.21-1.02,1.7s-1.05,.95-1.77,1.37Zm1.83-30.49h-.87c.97,.38,1.73,.89,2.29,1.56s1.12,1.7,1.7,3.11l10.85,25.83c.34-.62,.52-1.17,.52-1.64,0-.44-.17-1.06-.52-1.88l-9.33-22.64c-.58-1.48-1.19-2.58-1.84-3.28s-1.58-1.05-2.8-1.05Zm28.8,26.37v-22.62c0-1.84,.14-3.09,.42-3.75-.62,.05-1.07,.22-1.34,.53s-.43,.73-.49,1.27-.09,1.4-.09,2.59v22.59c0,1.12-.11,1.89-.34,2.31s-.69,.82-1.39,1.21h.82c1.08,0,1.75-.31,2.02-.93s.4-1.68,.4-3.2Z"/>
  </g>
  <circle class="cls-3" cx="67.82" cy="29.63" r="1.8"/>
</svg>